<?xml version="1.0" encoding="UTF-8" standalone="no"?>
<!-- Created with Inkscape (http://www.inkscape.org/) -->

<svg
   width="100%"
   height="100%"
   viewBox="0 0 264.05408 171.97914"
   version="1.1"
   id="svg202"
   stroke="orange"
   stroke-width="2"
   inkscape:version="1.1 (c68e22c387, 2021-05-23)"
   sodipodi:docname="drawing.svg"
   xmlns:inkscape="http://www.inkscape.org/namespaces/inkscape"
   xmlns:sodipodi="http://sodipodi.sourceforge.net/DTD/sodipodi-0.dtd"
   xmlns="http://www.w3.org/2000/svg"
   xmlns:svg="http://www.w3.org/2000/svg">
  <sodipodi:namedview
     id="namedview204"
     pagecolor="#505050"
     bordercolor="#eeeeee"
     borderopacity="1"
     inkscape:pageshadow="0"
     inkscape:pageopacity="0"
     inkscape:pagecheckerboard="0"
     inkscape:document-units="mm"
     showgrid="false"
     width="264.05408mm"
     height="240mm"
     fit-margin-top="0"
     fit-margin-left="0"
     fit-margin-right="0"
     fit-margin-bottom="0"
     inkscape:zoom="0.98520767"
     inkscape:cx="396.36313"
     inkscape:cy="262.88874"
     inkscape:window-width="1920"
     inkscape:window-height="986"
     inkscape:window-x="-11"
     inkscape:window-y="-11"
     inkscape:window-maximized="1"
     inkscape:current-layer="layer1" />
  <defs
     id="defs199" />
  <g
     inkscape:label="Layer 1"
     inkscape:groupmode="layer"
     id="layer1"
     transform="translate(-32.388773,-30.710986)">
    <path
       d="m 173.25301,158.00198 -0.71437,0.55562 -1.53459,1.53458 -0.1852,0.15875 -0.18521,0.0794 -0.15875,-0.0265 -0.18521,0.0265 -0.10583,0.0529 -0.10584,0.0794 -1.16416,1.27 -0.1323,0.21167 -0.10583,0.15875 -0.0265,0.10583 v 0.10583 l 0.0265,0.10584 0.0265,0.0794 0.0794,0.18521 0.10584,0.15875 0.47625,0.60854 0.0529,0.0794 0.0529,0.0794 v 0.13229 l -0.0265,0.15875 -0.0794,0.0794 -0.0794,0.0529 -2.56646,0.92604 -0.8202,0.29104 -2.11667,0.87312 -0.71438,0.47625 -1.40229,1.56105 -0.23812,0.23812 -0.47625,-0.60854 -0.37042,-0.21167 -0.44979,0.0529 -1.19063,0.58208 -0.39687,0.10584 -0.44979,-0.10584 -0.47625,-0.23812 -2.46062,-1.77271 -2.14313,-1.53458 -1.71979,-1.21709 -0.92604,-0.97896 -1.64042,-2.30187 -0.97896,-0.9525 -2.14312,-1.50813 -5.08,-3.62479 -2.48709,-1.79916 -2.0902,-1.50813 -1.79917,-1.27 -0.89958,-0.89958 -0.15875,-0.10584 -1.11125,-1.40229 -0.15875,-0.52916 -0.26459,-1.13771 -0.0529,-0.44979 0.0529,-0.42334 0.13229,-0.37041 0.0794,-0.37042 -0.0529,-0.42333 -0.47625,-1.03188 -0.0529,-0.42333 v -0.52917 l -0.0794,-0.39687 -0.10583,-0.37042 -0.39687,-0.79375 -0.10584,-0.37042 -0.0529,-0.84666 -0.13229,-0.18521 -1.27,-0.74084 -0.74083,-0.21166 -0.34396,-0.26459 -0.0529,-0.13229 3.20146,-3.99521 0.79375,-1.71979 -0.18521,-0.68791 -0.50271,-0.7673 -2.51354,-2.83104 3.46604,-1.66687 v -0.29104 l -4.36563,-6.08542 5.45042,-2.06375 1.29646,0.0265 0.47625,1.13771 0.39687,0.66145 2.56646,3.06917 2.09021,3.67771 0.37042,0.21167 1.34937,0.29104 2.01084,0.79375 2.38125,1.34937 4.6302,2.8575 0.34396,0.60854 0.55563,0.55563 -0.0265,0.39687 1.85208,-0.635 1.08479,-1.64041 0.92604,-1.905 0.26459,-0.39688 0.29104,-0.26458 0.3175,-0.10583 0.29104,0.0794 0.29104,0.26458 0.3175,0.47625 0.0794,0.68792 0.0265,1.32292 0.21167,0.44979 0.66145,0.23812 4.15396,0.50271 0.34396,-0.34396 0.47625,-1.79916 0.29104,-0.15875 0.52917,-0.21167 2.03729,-0.0794 0.66146,-0.1323 0.50271,-0.21166 0.47625,-0.71438 0.18521,0.0265 0.13229,0.47625 0.34396,2.06375 0.13229,0.52917 0.21166,0.60854 0.52917,0.42333 0.52917,0.3175 1.53458,0.37042 4.65667,0.3175 0.74083,-0.21167 -0.37042,1.27 -0.0794,0.50271 -0.0265,0.52917 v 0.50271 l 0.0265,0.42333 0.0794,0.23812 -0.0264,0.23813 -0.21167,-0.0265 -0.79375,-0.15875 -0.15875,-0.0265 -0.13229,0.0529 -0.13229,0.10583 -0.15875,0.26459 -0.0265,0.23812 -0.42334,1.29646 -0.34395,0.39687 -0.26459,0.26459 -0.34396,1.11125 -0.1852,0.34396 -1.79917,-0.0265 -0.34396,-0.10584 -0.34396,-0.23812 -0.29104,-0.26458 -0.3175,-0.0794 h -0.34396 l -0.52916,0.0794 -0.26459,0.15875 -0.13229,0.15875 -0.0529,0.1852 -0.0265,0.21167 v 0.15875 l 0.0794,0.39688 0.39688,0.39687 -0.26459,0.74083 -0.13229,0.1323 -0.0794,0.0264 v 0.0529 l 0.0265,0.0794 0.15875,0.29104 0.4498,0.44979 0.23812,0.3175 0.0794,0.13229 -0.0265,0.0529 -0.44979,0.0529 -0.10584,0.0265 -0.10583,0.0794 -0.10583,0.0794 -0.15875,0.0265 -0.21167,0.18521 -0.74083,1.48167 -0.21167,0.29104 -0.26458,0.26458 -0.29105,0.21167 -0.92604,0.42333 -0.13229,0.26458 -0.10583,0.1323 -0.0529,0.0794 -0.50271,0.635 -0.26458,0.55563 -0.21167,0.5027 0.23813,0.50271 1.11125,1.56104 0.44979,0.29105 0.71437,0.39687 0.0265,0.10583 0.0794,0.18521 0.0529,0.15875 0.21167,0.13229 h 0.29104 l 0.66146,-0.29104 0.23813,0.0265 0.13229,0.23813 1.85208,0.87312 0.26458,0.44979 0.1323,0.44979 v 0.34396 l 0.0529,0.42334 0.13229,0.42333 0.29105,0.15875 0.37041,0.13229 0.23813,0.13229 0.26458,0.29104 0.23813,0.3175 0.0794,0.1323 0.0794,0.21166 0.15875,0.52917 0.0264,0.13229 z"
       id="UZB354"
       name="Bukhoro"
       style="fill:#008080;stroke-width:0.264583"> a
 </path>
    <path
       d="m 128.69718,127.09864 2.51354,2.83104 0.50271,0.7673 0.18521,0.68791 -0.79375,1.71979 -3.20146,3.99521 -0.0265,-0.0265 -0.13229,-0.47625 -0.0794,-0.1852 -0.58208,-0.7673 -0.21167,-0.42333 -0.3175,-1.24354 -0.18521,-0.29104 -0.50271,-0.55563 -0.15875,-0.26458 -0.13229,-0.42333 -0.15875,-0.92605 -0.50271,-1.71979 -0.15875,-0.39687 0.10584,-0.15875 -0.0794,-0.29104 -0.0265,-1.42875 -0.0529,-0.42334 -0.13229,-0.34396 -1.13771,-1.905 -0.29104,-0.3175 -3.43959,-2.54 -1.32291,-0.58208 -1.50813,-0.39687 -0.55562,-0.0794 -0.34396,0.18521 -0.21167,0.42333 -0.15875,0.71438 -0.37042,0.21166 -0.29104,0.66146 -0.44979,0.47625 -0.52917,0.26459 -0.58208,0.0265 -0.60854,-0.26458 -1.5875,-1.13771 h -0.29104 l -0.89959,0.15875 -0.0794,-0.18521 -0.0529,-0.1852 -0.0529,-0.0529 -0.29104,0.50271 -0.10583,0.10583 -0.10583,0.10583 -0.74084,-0.76729 -1.05833,-0.26458 -3.09563,0.18521 -1.87854,0.635 h -0.92604 l -0.52917,-0.13229 -0.42333,-0.3175 -0.846666,-0.84667 -0.92603,-0.68792 -1.481669,-0.76729 -1.693334,-0.87312 -0.423333,-0.42334 -0.105833,-0.47625 0.185208,-1.66687 0.132292,-0.34396 0.185208,-0.29104 0.264583,-0.23813 0.635,-0.3175 0.211667,-0.23812 -0.132292,-0.39688 -1.031875,-1.45521 -0.449791,-0.89957 -0.15875,-0.74083 0.396875,-0.55563 0.423333,-0.29104 0.47625,-0.0529 0.582083,0.18521 0.529167,0.34396 0.3175,0.13229 0.238125,-0.0265 0.15875,-0.26458 -0.02646,-0.29104 -0.132292,-0.29104 -0.185208,-0.23813 -0.211667,-0.18521 -0.740833,-0.44979 -0.238125,-0.23812 -0.15875,-0.26459 0.185208,-0.1852 0.15875,-0.47625 -0.02646,-0.21167 -0.15875,-0.37042 -0.05292,-0.0794 -0.02646,-0.10584 0.05292,-0.0794 0.105834,-0.0794 0.238125,-0.0529 0.423333,-0.0265 0.3175,-0.13229 0.793751,-0.55563 0.29104,-0.26458 0.0794,-0.0529 0.26458,-0.0265 0.3175,0.23813 0.15875,0.10583 0.767286,0.18521 0.76729,0.0794 0.21167,0.1852 0.0529,0.42334 v 0.92604 l 0.13229,0.34396 0.39688,0.635 0.1852,0.52916 0.42334,0.7673 0.21166,0.29104 0.26459,0.18521 0.34396,0.0794 h 0.71437 l 0.26458,0.15875 0.15875,0.34396 0.26459,0.79375 0.39687,0.71436 0.50271,0.55563 3.62479,3.30729 0.39688,0.0794 0.21166,0.0794 0.15875,0.13229 0.55563,0.60854 0.47625,0.4498 0.34396,0.13229 0.89958,0.15875 0.29104,0.18521 0.82021,0.89958 0.18521,0.29104 0.18521,0.60854 0.23812,0.10584 0.10584,0.0794 0.34395,0.13229 0.39688,-0.0265 0.26458,-0.21166 0.60854,-1.19063 0.26459,-0.29104 0.23812,-0.18521 0.26459,-0.13229 0.3175,-0.0794 h 0.8202 l 2.93688,0.71437 0.74083,0.3175 0.71438,0.42333 0.89958,0.68792 2.61938,2.91042 1.82562,2.93687 0.0794,0.0529 0.21167,0.13229 0.21166,0.0794 z"
       id="UZB355"
       name="Khorezm"
       style="fill:#008080;stroke-width:0.264583" />
    <path
       d="m 125.44281,75.531356 1.66687,2.83104 0.76729,0.71438 4.15396,1.1377 0.23813,0.1323 v 0.21166 l -0.10584,0.26459 -4.18041,7.91104 -3.94229,7.59354 -0.84667,1.98438 -0.34396,4.312704 v 0.23813 l 0.0529,0.21167 1.74625,3.22791 0.3175,0.66146 -0.0794,0.10583 -0.18521,0.18521 -3.30729,1.87854 -0.3175,0.29105 v 0.26458 l 0.13229,0.29104 6.58813,9.0752 4.36562,6.08542 v 0.29104 l -3.46604,1.66687 -0.82021,0.26459 -0.21166,-0.0794 -0.21167,-0.13229 -0.0794,-0.0529 -1.82563,-2.93687 -2.61937,-2.91042 -0.89958,-0.68792 -0.71438,-0.42333 -0.74083,-0.3175 -2.93688,-0.71437 h -0.82021 l -0.3175,0.0794 -0.26458,0.13229 -0.23812,0.18521 -0.26459,0.29104 -0.60854,1.19063 -0.26458,0.21166 -0.39688,0.0265 -0.34396,-0.13229 -0.10583,-0.0794 -0.23812,-0.10584 -0.18521,-0.60854 -0.18521,-0.29104 -0.82021,-0.89958 -0.29104,-0.18521 -0.89958,-0.15875 -0.34396,-0.13229 -0.47625,-0.4498 -0.55563,-0.60854 -0.15875,-0.13229 -0.21166,-0.0794 -0.39688,-0.0794 -3.62479,-3.30729 -0.50271,-0.55563 -0.39687,-0.71436 -0.26459,-0.79375 -0.15875,-0.34396 -0.26458,-0.15875 h -0.71438 l -0.34395,-0.0794 -0.26459,-0.18521 -0.21166,-0.29104 -0.42334,-0.7673 -0.18521,-0.52916 -0.39687,-0.635 -0.13229,-0.34396 v -0.92604 l -0.0529,-0.42334 -0.21167,-0.1852 -0.76729,-0.0794 -0.767286,-0.18521 -0.15875,-0.10583 -0.3175,-0.23813 -0.26458,0.0265 -0.0794,0.0529 -0.29104,0.26458 -0.793753,0.55563 -0.3175,0.13229 -0.423333,0.0265 -0.238125,0.0529 -0.105834,0.0794 -0.05292,0.0794 0.02646,0.10584 0.05292,0.0794 0.15875,0.37042 0.02646,0.21167 -0.15875,0.47625 -0.185208,0.1852 -0.370417,-0.52916 -0.449792,-0.39688 -1.613958,-0.60854 -0.79375,0.0265 -0.211667,-0.10583 -0.185208,-0.29105 0.02646,-0.26458 0.185209,-0.21167 0.264583,-0.0794 h 0.02646 l 0.899584,-0.34396 -0.05292,-0.82021 -0.291042,-1.03187 0.132292,-0.9525 0.264583,-0.18521 0.3175,-0.13229 0.238125,-0.18521 0.05292,-0.34396 -0.185208,-0.26458 -0.343959,-0.21167 -0.687916,-0.26458 -0.555625,-0.50271 -0.423334,-0.66146 -0.47625,-0.52917 -0.687916,-0.0794 -0.687917,0.0794 -1.349375,-0.13229 -3.254375,0.50271 -0.79375,-0.0265 -0.370417,-0.13229 -0.608541,-0.661464 -0.370417,-0.13229 -0.79375,-0.0794 -0.423333,-0.26459 -0.211667,-0.37041 -0.185208,-1.5875 -0.132292,-0.39688 -0.238125,-0.34396 -0.978958,-1.03187 -0.370417,-0.23813 -0.370416,0.0529 -0.449792,0.21167 -0.449792,0.13229 -0.449791,0.0265 -0.687917,-0.1323 -1.084792,-0.47625 -1.031875,-0.97896 -3.307291,-3.88937 -0.370417,-0.23813 -0.291042,0.47625 -0.211666,1.77271 -0.3175,0.60854 -0.635,0.21167 -0.79375,-0.0529 -0.79375,-0.18521 -1.640417,-0.68791 H 67.47254 l -0.264583,0.0794 -0.820209,0.5027 -0.582083,0.26459 -0.291042,0.21166 -0.132292,0.29105 0.07937,0.42333 0.291042,0.23812 1.931459,0.92605 0.529166,0.42333 0.47625,0.71437 0.423334,0.97896 1.137708,1.85209 0.608542,0.74083 0.185208,0.158754 0.07937,0.18521 -0.07937,0.18521 -0.185208,0.10583 -0.978959,0.15875 -0.264583,-0.0794 -0.15875,-0.26458 v -0.317504 l 0.07937,-0.37042 0.05292,-0.37041 -0.15875,-0.74084 -0.396875,-0.52916 -0.529167,-0.39688 -1.508125,-0.71437 -0.343959,-0.0794 -0.291041,0.0529 -0.555625,0.23812 -0.238125,0.0265 -0.264584,-0.13229 -0.343958,-0.52917 -0.211667,-0.21166 -0.291041,-0.10584 -0.343959,-0.0264 -0.343958,0.0794 -0.291042,0.13229 -0.15875,0.18521 -0.132291,0.26458 -0.396875,0.4498 -0.423334,0.1852 -0.264583,0.21167 0.105833,0.55563 0.3175,0.71437 0.02646,0.3175 -0.132291,0.50271 -0.635,1.428754 -0.211667,0.23812 -0.582083,0.21167 -0.132292,0.26458 0.105833,0.3175 0.211667,0.23813 0.02646,0.18521 -0.3175,0.23812 -0.3175,0.0794 -1.031875,-0.0529 -0.291041,0.0794 -0.873125,0.42333 -0.343959,0.0529 -0.105833,-0.87313 -0.132292,-0.52917 -0.211666,-0.42333 -0.291042,-0.34396 -0.370417,-0.29104 -0.820208,-0.44979 -0.661458,-0.0794 -0.15875,-0.0529 -0.15875,-0.13229 -0.211667,-0.15875 -0.3175,-0.502714 -0.185208,-0.15875 -0.264581,-0.0529 -0.396875,0.0265 -0.873125,0.29104 -0.661458,0.370424 -0.396875,0.37041 -0.15875,0.15875 -0.47625,1.00542 -1.931459,6.05896 -0.05292,0.3175 v 0.10583 l -1.375833,0.66146 -0.449792,0.60854 v 0.79375 l 0.343959,1.61396 -0.05292,0.79375 -0.105834,0.66145 -0.02646,0.635 0.291042,0.74083 0.343958,0.55563 0.15875,0.55562 0.05292,0.58209 v 0.71437 l 0.07937,0.58208 0.185209,0.55563 0.3175,0.52917 0.3175,0.37041 0.238125,0.15875 0.211666,0.10584 0.79375,0.1852 0.105834,0.10584 -0.02646,0.13229 -0.185209,0.21167 -0.3175,0.23812 -0.714375,0.34396 -0.3175,0.37042 -0.47625,0.84666 -0.291041,0.18521 -1.878541,-0.39687 -1.455211,-0.29105 -3.439584,-0.21166 -3.730624,-0.18521 -2.8575,-0.15875 -2.487083,-0.13229 -0.02646,-9.44562 v -4.73604 -4.7625 -4.762504 -4.78896 -4.81541 -4.84188 -4.84187 -4.86834 l -0.02646,-4.86833 v -4.894963 -4.947709 -4.92125 -4.974168 -5.000625 l 0.05292,-0.02646 1.42875,-0.47625 1.42875,-0.449792 1.455208,-0.47625 2.883958,-0.926041 1.42875,-0.47625 1.455208,-0.449792 1.42875,-0.47625 2.883961,-0.926042 1.455208,-0.449791 1.42875,-0.47625 1.455208,-0.449792 1.42875,-0.47625 2.883956,-0.926042 1.931458,-0.608541 1.905,-0.582084 1.931458,-0.582083 1.931458,-0.608542 0.873125,-0.264583 0.899584,-0.264583 1.772708,-0.529167 0.926042,-0.264583 1.852084,-0.529167 0.926041,-0.264583 1.243542,-0.370417 0.370417,0.02646 0.423333,0.185209 0.132292,0.105833 -0.02646,0.02646 -0.238125,0.635 -0.05292,0.396875 -0.07938,0.238125 -0.211667,0.449792 -0.05292,0.264583 v 0.608542 l -0.05292,0.15875 -0.05292,0.05292 -0.132292,0.07937 -0.05292,0.05292 -0.05292,0.07937 -0.132292,0.396875 -0.555625,0.767292 -0.07937,0.132292 -0.02646,0.05292 -0.15875,0.15875 -0.714375,1.005417 -0.07938,0.15875 -0.02646,0.15875 -0.05292,0.555625 -0.185208,0.582083 -0.211667,0.449792 -0.07937,0.343958 -0.07938,0.687917 -0.07938,0.343958 -0.132292,0.343959 -0.15875,0.3175 -0.105833,0.132291 -0.211667,0.211667 -0.105833,0.132292 -0.05292,0.15875 -0.02646,0.15875 -0.05292,0.3175 -0.05292,0.3175 -1.031875,2.513541 -0.132292,0.978958 -0.05292,0.635 0.02646,0.635 0.3175,0.926042 0.3175,0.820207 0.423333,0.687917 0.264583,0.9525 -0.02646,0.502711 -0.105833,0.343958 -0.132292,0.3175 -0.3175,0.211667 -0.370417,0.529167 -0.07937,0.370416 -0.105833,0.211667 -0.07938,0.15875 -0.02646,0.185208 0.105833,0.79375 0.264583,0.873125 0.396875,0.370417 0.291042,0.3175 0.608542,0.105833 0.740833,-0.05292 0.767292,-0.423334 0.79375,-0.661458 0.687916,-0.635 0.449792,-0.582083 0.238125,-0.370417 0.185208,-0.343958 0.3175,-0.370417 0.370417,-0.529167 0.343958,-0.582083 0.264584,-0.396878 0.264583,-0.370416 0.07937,-0.264584 -0.211667,-0.396875 -0.3175,-0.132291 -0.370416,-0.15875 0.211666,0.502708 -0.264583,0.07937 -0.370417,-0.105833 -0.15875,-0.264584 0.15875,-0.820208 0.185209,-0.370417 0.105833,-0.264582 0.3175,-0.105833 0.211667,-0.105834 0.3175,0.105834 0.07938,0.423332 0.07937,0.264583 0.211666,0.211667 0.3175,0.07937 0.502709,-0.132292 0.264583,-0.3175 -0.07938,-0.423332 -0.343958,-0.3175 -0.185209,-0.3175 0.15875,-0.555625 0.02646,-0.687917 -0.185209,-0.714375 -0.132291,-0.635 v -0.449841 l 0.3175,-0.07937 0.423333,-0.07937 0.211667,-0.47625 0.07937,-0.529167 0.132291,-0.396875 0.105834,-0.635 -0.343959,-0.211666 -0.343958,0.264583 -0.264583,0.529167 -0.582084,0.343958 -0.370416,0.05292 -0.396875,0.3175 -0.449792,-0.3175 -0.02646,-0.502708 0.185208,-0.529166 0.264583,-0.608542 0.238125,-0.529167 0.47625,-0.529166 0.238125,-0.449792 0.423334,-0.423333 0.449791,-0.449792 0.343959,-0.15875 -0.714375,-0.529167 -0.396875,-0.502708 -0.343959,-1.349375 -0.132291,-0.873125 -0.05292,-0.582083 0.05292,-0.661459 0.211666,-0.767291 0.238125,-0.635 0.132292,-0.3175 1.508125,1.031875 1.957917,1.322916 1.349375,0.899584 3.624791,2.487083 2.354792,1.561042 -0.05292,0.105833 -0.370417,0.502708 -0.211666,0.423334 -0.291042,0.978958 -0.238125,0.635 -0.449791,0.767291 -0.343959,0.423334 -0.15875,0.767291 -0.185208,0.740834 -0.238125,0.555625 -0.264583,0.47625 -0.529167,0.714375 -0.238125,0.529166 -0.185208,0.529167 -0.105834,0.529166 0.185209,1.084791 0.396875,0.926045 0.47625,0.635 1.27,1.455208 1.904999,1.905 1.005417,0.978958 0.79375,0.582084 0.79375,0.635 0.185208,0.185208 0.05292,0.291042 -0.07937,0.608541 -0.3175,0.47625 -0.714375,0.47625 -0.238125,0.635 -0.264583,0.635 -0.343959,0.635 0.238125,0.582084 0.767292,0.132291 0.687917,-0.05292 0.608541,-0.185209 0.396875,-0.370416 0.555625,-0.05292 0.608542,0.105833 0.582083,-0.211666 0.635,-0.423334 0.873125,-0.582083 0.396875,-0.529167 0.07937,-0.264583 -0.211666,-0.238125 -0.291042,-0.02646 -0.264583,-0.105834 -0.15875,-0.15875 -0.05292,-0.185208 V 57.9101 l 0.07937,-0.15875 0.105833,-0.264583 0.185209,-0.15875 0.132291,-0.15875 h 0.264604 l 0.396875,0.02646 0.423333,0.07938 0.291042,-0.07938 0.238125,-0.238125 0.105833,-0.291042 0.211667,-0.714375 0.105833,-0.687916 -0.07937,-0.687917 -0.185208,-1.137708 -0.264584,-0.873125 -0.343958,-0.714375 -0.105833,-0.687917 -0.02646,-0.582083 0.264584,-0.37042 0.264583,-0.211666 0.291042,-0.343959 0.211666,-0.47625 0.132292,-0.608541 v -0.793749 l 0.02646,-1.031875 v -0.529167 l 0.291042,0.211667 2.989796,1.984374 2.804576,1.905 2.59291,1.693336 2.2225,1.508125 3.20146,2.116666 0.9525,0.635 0.39688,0.449792 0.26458,0.582083 0.10583,0.502709 0.10584,1.11125 0.15875,0.502708 0.89958,1.455208 1.74625,1.931459 0.84667,0.899582 0.84666,0.92604 1.0848,1.24354 0.87312,1.00542 1.77271,2.06375 0.87312,1.00542 0.87313,1.00541 0.87312,1.00542 1.7198,1.98438 1.16416,1.32291 0.60854,0.26459 z"
       id="UZB356"
       name="Karakalpakstan"
       style="fill:#008080;stroke-width:0.264583" />
    <path
       d="m 198.17676,123.9501 v 0.0794 l -1.87854,0.76729 -0.13229,0.3175 -0.18521,0.23812 0.23813,2.8575 0.0265,0.10584 0.0529,0.0794 0.0794,0.18521 0.13229,0.15875 0.10583,0.0529 0.21167,0.13229 1.37583,0.37041 0.0794,0.0794 0.0529,0.0794 0.0529,0.0794 v 0.15875 0.18521 l -0.0529,0.37041 v 0.34396 l 0.0265,0.10584 0.13229,0.34395 0.34396,0.60855 -0.42333,1.08479 -2.35479,4.57729 -0.29105,-0.29104 -0.1852,-0.23813 -0.0529,-0.0794 -0.0265,-0.0794 -0.0265,-0.0794 v -0.10584 l 0.10584,-0.3175 v -0.1852 l -0.0265,-0.0794 -0.0265,-0.0794 -0.52917,-0.60855 -0.44979,-0.39687 -0.15875,-0.0794 -0.13229,-0.0265 -0.15875,0.0529 -1.11125,0.76729 -0.34396,0.15875 -0.3175,0.0529 -0.23812,-0.0529 -0.29105,-0.10583 -0.26458,-0.15875 -0.3175,-0.23812 -0.23812,-0.10584 -0.21167,-0.0265 -0.21167,0.0529 -0.18521,0.15875 -0.1852,0.18521 -0.1323,0.23812 -0.13229,0.26459 -0.18521,0.55562 -0.0529,0.3175 v 0.3175 l 0.13229,0.37042 0.10583,0.15875 0.0794,0.15875 -0.0265,0.15875 -0.10583,0.23812 -0.10584,0.10584 -0.3175,0.13229 -0.0794,0.13229 v 0.15875 l 0.18521,0.47625 0.0529,0.71438 -0.10583,0.44979 -0.21167,0.44979 -0.0265,0.13229 0.0265,0.13229 0.0794,0.10584 0.21166,0.21166 v 0.18521 l -0.0794,0.13229 -0.39688,0.55563 -0.13229,0.26458 -0.0794,0.26458 -0.13229,0.4498 -0.39688,0.9525 -0.0265,0.13229 0.0265,0.13229 0.0794,0.0265 h 0.10583 l 0.29104,-0.0529 h 0.13229 l 0.13229,0.0265 0.1323,0.0529 0.0794,0.13229 0.0529,0.10583 v 0.15875 l -0.0794,0.18521 -0.15875,0.15875 -0.97896,0.92604 -0.1852,0.10583 -3.3073,0.68792 -0.66145,-0.13229 -0.66146,-0.42333 -0.3175,0.10583 -0.29104,-0.15875 -0.29105,-0.21167 -0.635,-0.23812 -0.23812,-0.26459 -0.39688,-0.55562 -0.15875,-0.0265 -0.0529,-0.0265 -0.29104,-0.0529 -1.4023,-0.635 h -0.23812 l -0.10583,0.0529 -0.0794,0.0794 -0.0794,0.21166 -0.0529,0.1323 -0.0265,0.0794 0.0265,0.26458 -0.0529,0.39688 v 0.10583 l -0.0265,0.10584 -0.0529,0.0529 -0.0265,0.10584 -0.39688,0.58208 -0.0264,0.13229 0.0529,0.0794 h 0.10584 l 0.10583,0.0265 0.0794,0.0529 0.0794,0.0794 0.0265,0.10583 -0.0265,0.10583 -0.0529,0.15875 -0.23812,0.52917 -0.0529,0.13229 -0.26458,1.03188 -0.10584,0.23812 -0.13229,0.0794 -0.18521,0.0794 h -0.44979 l -0.42333,-0.0529 -0.44979,-0.21166 -0.52917,-0.29104 -0.10583,-0.0265 -0.10584,0.0529 -0.0794,0.1323 -0.0265,0.13229 -0.0529,0.34396 -0.13229,0.10583 -0.13229,0.10583 -0.92604,0.23813 -0.74083,0.10583 -0.15875,0.0265 -0.0794,0.0529 -0.0794,0.0794 -0.0265,0.10583 0.10583,0.23813 0.47625,0.52917 0.29104,0.26458 0.13229,0.13229 0.1323,0.18521 0.44979,1.69333 0.0265,0.15875 -0.0265,0.29104 -0.0265,0.18521 -0.0529,0.15875 -0.44979,1.03188 v 0.10583 l 0.18521,0.60854 0.82021,1.64042 -0.29104,0.18521 -1.53459,0.34396 -0.0265,-0.55563 -0.0264,-0.13229 -0.15875,-0.52917 -0.0794,-0.21166 -0.0794,-0.1323 -0.23813,-0.3175 -0.26458,-0.29104 -0.23813,-0.13229 -0.37041,-0.13229 -0.29105,-0.15875 -0.13229,-0.42333 -0.0529,-0.42334 v -0.34396 l -0.1323,-0.44979 -0.26458,-0.44979 -1.85208,-0.87312 -0.13229,-0.23813 -0.23813,-0.0265 -0.66146,0.29104 h -0.29104 l -0.21167,-0.13229 -0.0529,-0.15875 -0.0794,-0.18521 -0.0265,-0.10583 -0.71437,-0.39687 -0.44979,-0.29105 -1.11125,-1.56104 -0.23813,-0.50271 0.21167,-0.5027 0.26458,-0.55563 0.50271,-0.635 0.0529,-0.0794 0.10583,-0.1323 0.13229,-0.26458 0.92604,-0.42333 0.29105,-0.21167 0.26458,-0.26458 0.21167,-0.29104 0.74083,-1.48167 0.21167,-0.18521 0.15875,-0.0265 0.10583,-0.0794 0.10583,-0.0794 0.10584,-0.0265 0.44979,-0.0529 0.0265,-0.0529 -0.0794,-0.13229 -0.23812,-0.3175 -0.4498,-0.44979 -0.15875,-0.29104 -0.0265,-0.0794 v -0.0529 l 0.0794,-0.0264 0.13229,-0.1323 0.26459,-0.74083 -0.39688,-0.39687 -0.0794,-0.39688 v -0.15875 l 0.0265,-0.21167 0.0529,-0.1852 0.13229,-0.15875 0.26459,-0.15875 0.52916,-0.0794 h 0.34396 l 0.3175,0.0794 0.29104,0.26458 0.34396,0.23812 0.34396,0.10584 1.79917,0.0265 0.1852,-0.34396 0.34396,-1.11125 0.26459,-0.26459 0.34395,-0.39687 0.42334,-1.29646 0.0265,-0.23812 0.15875,-0.26459 0.13229,-0.10583 0.13229,-0.0529 0.15875,0.0265 0.79375,0.15875 0.21167,0.0265 0.0264,-0.23813 -0.0794,-0.23812 -0.0265,-0.42333 v -0.50271 l 0.0265,-0.52917 0.0794,-0.50271 0.37042,-1.27 -0.74083,0.21167 -4.65667,-0.3175 -1.53458,-0.37042 -0.52917,-0.3175 -0.52917,-0.42333 -0.21166,-0.60854 -0.13229,-0.52917 -0.34396,-2.06375 -0.13229,-0.47625 -0.18521,-0.0265 -0.47625,0.71438 -0.50271,0.21166 -0.66146,0.1323 -2.03729,0.0794 -0.52917,0.21167 -0.29104,0.15875 -0.47625,1.79916 -0.34396,0.34396 -4.15396,-0.50271 -0.66145,-0.23812 -0.21167,-0.44979 -0.0265,-1.32292 -0.0794,-0.68792 -0.3175,-0.47625 -0.29104,-0.26458 -0.29104,-0.0794 -0.3175,0.10583 -0.29105,0.26458 -0.26458,0.39688 -0.92604,1.905 -1.08479,1.64041 -1.85209,0.635 0.0265,-0.39687 -0.55562,-0.55563 -0.34396,-0.60854 -4.63021,-2.8575 -2.38125,-1.34937 -2.01083,-0.79375 -1.34938,-0.29104 -0.37041,-0.21167 -2.09021,-3.67771 -2.56646,-3.06917 -0.39687,-0.66145 -0.47625,-1.13771 -1.29646,-0.0265 -5.45042,2.06375 -6.58812,-9.0752 -0.1323,-0.29104 v -0.26458 l 0.3175,-0.29105 3.3073,-1.87854 0.1852,-0.18521 0.0794,-0.10583 -0.3175,-0.66146 -1.74625,-3.22791 -0.0529,-0.21167 v -0.23813 l 0.34396,-4.312704 0.84667,-1.98438 3.94229,-7.59354 4.18042,-7.91104 0.10583,-0.26459 v -0.21166 l -0.23812,-0.1323 -4.15396,-1.1377 -0.76729,-0.71438 -1.66688,-2.83104 1.27,-0.23813 1.08479,-0.1852 1.95792,-0.37042 1.74625,-0.3175 0.87312,-0.15875 1.4023,-0.23813 1.40229,-0.23812 7.01146,-1.13771 1.40229,-0.23812 2.35479,0.23812 2.32833,0.21167 2.35479,0.21166 2.32834,0.21167 2.14312,0.18521 2.11666,0.18521 2.14313,0.21166 2.11666,0.18521 0.84667,0.0794 0.52917,-0.15875 1.56104,-0.84666 1.48167,-0.82021 1.53458,-0.87313 1.48167,-0.82021 0.29104,-0.10583 0.26458,-0.10583 0.50271,0.0794 0.23812,0.23812 0.26459,0.21167 1.66687,2.16958 1.64042,2.16959 0.76729,0.8202 0.76729,0.79375 1.5875,1.00542 1.5875,0.97896 0.60854,0.55562 1.29646,2.69875 0.84667,1.7198 1.13771,2.38125 1.00541,2.03729 0.26459,0.0265 2.2225,-1.19063 2.19604,-1.21708 -0.3175,5.21229 -0.34396,5.18583 -0.0794,1.11125 -0.1323,0.37042 -0.37041,0.13229 -0.0794,0.29104 -0.0794,4.048134 -0.0529,4.02167 0.0529,0.23812 0.13229,0.10583 h 1.85208 1.66688 l 1.69333,0.0265 h 1.85208 l 0.10584,-0.0265 0.13229,0.0265 h 0.10583 l 0.0794,0.0529 0.26458,2.61937 0.26458,2.59292 0.47625,2.53999 0.50271,2.54 0.66146,3.04271 0.66146,2.98979 0.34396,0.42333 0.34396,0.42334 z"
       id="UZB357"
       name="Navoi"
       style="fill:#008080;stroke-width:0.264583" />
    <path
       d="m 196.0601,137.31156 0.13229,0.10583 1.93146,0.0794 0.635,0.18521 0.23812,0.0529 0.26458,0.0529 0.34396,-0.0265 0.39688,-0.0794 0.10583,-0.0265 0.0794,0.0794 0.0794,0.10584 0.10583,0.26458 0.0794,0.18521 0.0265,0.21166 -0.0265,0.26459 -0.0794,0.29104 -0.13229,0.3175 -0.0265,0.10583 -0.0265,0.13229 v 0.1323 l 0.0265,0.9525 0.0265,0.34395 0.21167,1.05834 0.0529,0.0794 0.0529,0.10584 0.10584,0.10583 0.3175,0.13229 0.0794,0.0794 0.0529,0.0794 v 0.15875 l -0.0529,0.10583 v 0.15875 l 0.0529,0.15875 0.42333,0.50271 -0.0265,0.47625 -0.0529,0.18521 -0.0529,0.0529 -0.0794,0.0794 -0.29104,0.0794 -0.0794,0.0529 -0.0265,0.10584 -0.0265,0.10583 0.0794,0.89958 0.0529,0.10584 0.0529,0.0794 0.18521,0.0529 h 0.13229 l 0.13229,-0.0265 0.0794,-0.0265 0.29104,-0.13229 0.0794,-0.0265 h 0.10584 0.10583 l 0.10583,0.0794 0.0794,0.13229 0.0265,0.26458 -0.0529,0.13229 v 0.18521 l 0.0265,0.10584 0.52916,0.58208 0.21167,-0.0794 h 0.0794 l 0.0529,-0.0265 0.18521,0.29104 1.21708,0.34396 0.18521,0.0264 0.23813,-0.0264 0.10583,-0.0265 h 0.10583 l 0.26459,0.15875 0.10583,0.0529 0.13229,0.0265 0.15875,-0.0529 0.34396,0.0264 2.67229,0.50271 0.26459,0.42334 0.39687,1.87854 -0.0529,0.15875 -0.23812,0.0529 h -0.10583 l -0.42334,0.10584 -0.3175,0.10583 -0.50271,0.26458 -0.23812,0.18521 -0.10583,0.10584 -0.0265,0.10583 -0.0529,0.13229 v 0.29104 0.18521 l 0.0265,0.13229 0.0265,0.10584 0.0265,0.1852 v 0.1323 0.23812 l -0.0265,0.10583 -0.0794,0.10584 -0.13229,0.0529 -0.13229,0.0265 h -0.47625 l -0.18521,0.0529 -0.10583,0.18521 -0.0529,0.15875 -0.0265,1.37583 0.15875,0.34396 0.21167,0.26458 0.635,0.55563 1.16417,1.03187 -0.1323,0.18521 -0.1852,0.76729 -0.10584,0.79375 -0.0265,0.74084 -0.1852,0.66145 -0.10584,0.66146 -0.10583,0.0529 -0.15875,-0.0529 -0.15875,0.0529 -0.0265,0.0265 -3.67771,-0.92604 -0.82021,-0.0529 v 0.10583 l 0.0265,0.21167 v 0.0794 0.10584 l -0.0529,0.10583 -0.0529,0.0794 -0.0794,0.0794 -0.0794,0.0265 -0.18521,0.0529 -1.69333,0.0529 -0.21167,-0.0265 -0.10583,-0.0529 -0.10584,-0.0529 -0.10583,-0.0794 -0.0529,-0.10584 -0.0265,-0.15875 0.0265,-0.3175 0.10584,-0.52916 -0.0529,-0.29105 -0.3175,-0.58208 -0.3175,-0.0529 -1.32292,-0.26458 -1.19062,-0.18521 h -0.21167 l -0.26458,0.0794 -0.23813,0.13229 -0.13229,0.10583 -0.10583,0.10584 -0.50271,0.76729 -0.13229,0.13229 -1.16417,0.47625 h -0.10583 l -0.21167,-0.0529 -0.23812,-0.13229 -0.92604,-0.71437 -0.37042,-0.26459 -0.29104,0.0265 -2.2225,0.50271 -0.0794,0.0265 -1.48166,0.71437 -0.3175,0.21167 -0.23813,0.0794 h -0.55562 l -1.03188,-0.26458 -0.0794,-0.0794 -0.0794,-0.1323 -0.0265,-0.21166 -0.0265,-0.15875 v -0.13229 l 0.0265,-0.3175 v -0.29105 l -0.0529,-0.13229 -0.0529,-0.10583 -0.37042,-0.29104 -0.47625,-0.3175 -0.79375,-0.79375 -0.15875,-0.21167 -0.10583,-0.15875 -0.0265,-0.10583 -0.15875,-0.66146 -0.0265,-0.0794 -0.0529,-0.0794 -0.0794,-0.0794 -0.0794,-0.0529 -0.10584,-0.0265 -0.13229,-0.0265 h -0.47625 l -0.18521,0.0265 -0.13229,0.0794 -0.0265,0.10584 v 0.10583 0.29104 0.10584 l -0.0265,0.10583 -0.0529,0.0794 -0.0529,0.0794 -0.34396,0.23812 -0.3175,0.18521 -0.18521,0.0529 -6.56166,-0.15875 -0.82021,-1.64042 -0.18521,-0.60854 v -0.10583 l 0.44979,-1.03188 0.0529,-0.15875 0.0265,-0.18521 0.0265,-0.29104 -0.0265,-0.15875 -0.44979,-1.69333 -0.1323,-0.18521 -0.13229,-0.13229 -0.29104,-0.26458 -0.47625,-0.52917 -0.10583,-0.23813 0.0265,-0.10583 0.0794,-0.0794 0.0794,-0.0529 0.15875,-0.0265 0.74083,-0.10583 0.92604,-0.23813 0.13229,-0.10583 0.13229,-0.10583 0.0529,-0.34396 0.0265,-0.13229 0.0794,-0.1323 0.10584,-0.0529 0.10583,0.0265 0.52917,0.29104 0.44979,0.21166 0.42333,0.0529 h 0.44979 l 0.18521,-0.0794 0.13229,-0.0794 0.10584,-0.23812 0.26458,-1.03188 0.0529,-0.13229 0.23812,-0.52917 0.0529,-0.15875 0.0265,-0.10583 -0.0265,-0.10583 -0.0794,-0.0794 -0.0794,-0.0529 -0.10583,-0.0265 h -0.10584 l -0.0529,-0.0794 0.0264,-0.13229 0.39688,-0.58208 0.0265,-0.10584 0.0529,-0.0529 0.0265,-0.10584 v -0.10583 l 0.0529,-0.39688 -0.0265,-0.26458 0.0265,-0.0794 0.0529,-0.1323 0.0794,-0.21166 0.0794,-0.0794 0.10583,-0.0529 h 0.23812 l 1.4023,0.635 0.29104,0.0529 0.0529,0.0265 0.15875,0.0265 0.39688,0.55562 0.23812,0.26459 0.635,0.23812 0.29105,0.21167 0.29104,0.15875 0.3175,-0.10583 0.66146,0.42333 0.66145,0.13229 3.3073,-0.68792 0.1852,-0.10583 0.97896,-0.92604 0.15875,-0.15875 0.0794,-0.18521 v -0.15875 l -0.0529,-0.10583 -0.0794,-0.13229 -0.1323,-0.0529 -0.13229,-0.0265 h -0.13229 l -0.29104,0.0529 h -0.10583 l -0.0794,-0.0265 -0.0265,-0.13229 0.0265,-0.13229 0.39688,-0.9525 0.13229,-0.4498 0.0794,-0.26458 0.13229,-0.26458 0.39688,-0.55563 0.0794,-0.13229 v -0.18521 l -0.21166,-0.21166 -0.0794,-0.10584 -0.0265,-0.13229 0.0265,-0.13229 0.21167,-0.44979 0.10583,-0.44979 -0.0529,-0.71438 -0.18521,-0.47625 v -0.15875 l 0.0794,-0.13229 0.3175,-0.13229 0.10584,-0.10584 0.10583,-0.23812 0.0265,-0.15875 -0.0794,-0.15875 -0.10583,-0.15875 -0.13229,-0.37042 v -0.3175 l 0.0529,-0.3175 0.18521,-0.55562 0.13229,-0.26459 0.1323,-0.23812 0.1852,-0.18521 0.18521,-0.15875 0.21167,-0.0529 0.21167,0.0265 0.23812,0.10584 0.3175,0.23812 0.26458,0.15875 0.29105,0.10583 0.23812,0.0529 0.3175,-0.0529 0.34396,-0.15875 1.11125,-0.76729 0.15875,-0.0529 0.13229,0.0265 0.15875,0.0794 0.44979,0.39687 0.52917,0.60855 0.0265,0.0794 0.0265,0.0794 v 0.1852 l -0.10584,0.3175 v 0.10584 l 0.0265,0.0794 0.0265,0.0794 0.0529,0.0794 0.1852,0.23813 z"
       id="UZB358"
       name="Samarkand"
       style="fill:#008080;stroke-width:0.264583" />
    <path
       d="m 207.41072,161.46802 -0.10583,0.10583 -0.0794,0.0794 -0.0265,0.13229 -0.0264,0.29104 0.10583,0.79375 0.42333,0.39687 1.87854,0.66146 1.24355,0.0529 0.60854,0.23812 0.0529,0.0794 0.1323,0.23812 0.0794,0.0794 0.10583,0.0265 0.26459,-0.0529 0.10583,0.0265 0.13229,0.23812 0.0265,0.26459 -0.18521,1.53458 0.0794,0.50271 h 0.0265 l -0.23813,0.18521 -0.26458,0.10583 -1.11125,0.0529 -0.21167,0.0529 -0.15875,0.0794 -0.10583,0.0529 -0.0794,0.0794 -0.13229,0.10583 -0.0794,0.15875 -0.0529,0.1323 v 0.15875 l 0.13229,0.47625 0.0794,0.71437 0.37041,0.66146 0.0265,0.0794 0.0265,0.10584 v 0.13229 l -0.0265,0.10583 -0.0265,0.13229 v 0.10584 l -0.0265,0.10583 v 0.10583 l 0.0265,0.10584 v 0.10583 l 0.0529,0.0794 0.0265,0.21166 0.0265,0.10584 v 0.10583 l -0.0529,0.15875 -0.0794,0.15875 -0.15875,0.23812 -0.0794,0.15875 -0.0265,0.15875 v 0.34396 l -0.0265,0.0794 -0.0529,0.0794 -0.10584,-0.0265 -0.0794,-0.0529 -0.29104,-0.29104 -0.0529,-0.0529 -0.0794,-0.0529 -0.10583,-0.0529 -0.23812,-0.0529 -0.23813,-0.0265 h -0.21167 l -0.21166,0.0529 -0.21167,0.10583 -0.13229,0.10583 -0.10583,0.10584 -0.0794,0.0794 -0.92604,1.79917 -0.15875,0.21167 -0.26458,0.29104 -0.15875,0.10583 -0.23813,0.13229 -0.60854,0.15875 -0.10583,0.26459 -0.18521,0.29104 -0.26459,0.29104 -0.58208,0.47625 -0.0794,0.13229 -0.10584,0.26458 -0.0794,0.3175 -0.15875,1.00542 -0.13229,0.47625 -0.0265,0.10583 -0.21167,0.21167 -1.69333,1.37583 -0.87313,0.47625 -0.18521,0.0529 -0.55562,0.10583 -0.13229,0.0794 -0.13229,0.18521 -0.23813,0.39687 -0.15875,0.39688 -0.0794,0.21166 -0.0794,0.23813 -0.10583,0.23812 -0.10584,0.21167 -1.87854,1.74625 -0.13229,0.18521 -0.0794,0.3175 -0.0794,0.76729 -0.0794,0.26458 -0.23813,0.47625 -0.47625,0.29105 -0.18521,-0.52917 -0.50271,-0.37042 -0.55562,-0.29104 -0.60854,-0.15875 h -1.16417 l -0.47625,-0.13229 -1.56104,-0.74083 -0.71438,-0.89959 -0.44979,-0.44979 -0.50271,-0.21167 -1.00541,-0.29104 -0.9525,-0.76729 -0.42334,-0.23812 -1.03187,-0.15875 -1.53458,-0.74084 -0.52917,-0.0529 -0.42333,0.1852 -0.74084,0.58209 -0.39687,0.23812 -1.05834,0.0794 -1.03187,-0.34396 -2.54,-1.71979 -1.53458,-1.03188 -2.06375,-1.40229 -1.45521,-1.34937 -2.06375,-1.85209 -1.03188,-0.66146 -2.24896,-0.79375 -1.98437,-1.1377 -3.22792,-2.75167 -0.87312,-1.13771 0.23812,-0.23812 1.40229,-1.56105 0.71438,-0.47625 2.11667,-0.87312 0.8202,-0.29104 2.56646,-0.92604 0.0794,-0.0529 0.0794,-0.0794 0.0265,-0.15875 v -0.13229 l -0.0529,-0.0794 -0.0529,-0.0794 -0.47625,-0.60854 -0.10584,-0.15875 -0.0794,-0.18521 -0.0265,-0.0794 -0.0265,-0.10584 v -0.10583 l 0.0265,-0.10583 0.10583,-0.15875 0.1323,-0.21167 1.16416,-1.27 0.10584,-0.0794 0.10583,-0.0529 0.18521,-0.0265 0.15875,0.0265 0.18521,-0.0794 0.1852,-0.15875 1.53459,-1.53458 0.71437,-0.55562 1.53459,-0.34396 0.29104,-0.18521 6.56166,0.15875 0.18521,-0.0529 0.3175,-0.18521 0.34396,-0.23812 0.0529,-0.0794 0.0529,-0.0794 0.0265,-0.10583 v -0.10584 -0.29104 -0.10583 l 0.0265,-0.10584 0.13229,-0.0794 0.18521,-0.0265 h 0.47625 l 0.13229,0.0265 0.10584,0.0265 0.0794,0.0529 0.0794,0.0794 0.0529,0.0794 0.0265,0.0794 0.15875,0.66146 0.0265,0.10583 0.10583,0.15875 0.15875,0.21167 0.79375,0.79375 0.47625,0.3175 0.37042,0.29104 0.0529,0.10583 0.0529,0.13229 v 0.29105 l -0.0265,0.3175 v 0.13229 l 0.0265,0.15875 0.0265,0.21166 0.0794,0.1323 0.0794,0.0794 1.03188,0.26458 h 0.55562 l 0.23813,-0.0794 0.3175,-0.21167 1.48166,-0.71437 0.0794,-0.0265 2.2225,-0.50271 0.29104,-0.0265 0.37042,0.26459 0.92604,0.71437 0.23812,0.13229 0.21167,0.0529 h 0.10583 l 1.16417,-0.47625 0.13229,-0.13229 0.50271,-0.76729 0.10583,-0.10584 0.13229,-0.10583 0.23813,-0.13229 0.26458,-0.0794 h 0.21167 l 1.19062,0.18521 1.32292,0.26458 0.3175,0.0529 0.3175,0.58208 0.0529,0.29105 -0.10584,0.52916 -0.0265,0.3175 0.0265,0.15875 0.0529,0.10584 0.10583,0.0794 0.10584,0.0529 0.10583,0.0529 0.21167,0.0265 1.69333,-0.0529 0.18521,-0.0529 0.0794,-0.0265 0.0794,-0.0794 0.0529,-0.0794 0.0529,-0.10583 v -0.10584 -0.0794 l -0.0265,-0.21167 v -0.10583 l 0.82021,0.0529 z"
       id="UZB361"
       name="Kashkadarya"
       style="fill:#008080;stroke-width:0.264583" />
    <path
       d="m 196.29822,187.52948 0.47625,-0.29105 0.23813,-0.47625 0.0794,-0.26458 0.0794,-0.76729 0.0794,-0.3175 0.13229,-0.18521 1.87854,-1.74625 0.10584,-0.21167 0.10583,-0.23812 0.0794,-0.23813 0.0794,-0.21166 0.15875,-0.39688 0.23813,-0.39687 0.13229,-0.18521 0.13229,-0.0794 0.55562,-0.10583 0.18521,-0.0529 0.87313,-0.47625 1.69333,-1.37583 0.21167,-0.21167 0.0265,-0.10583 0.13229,-0.47625 0.15875,-1.00542 0.0794,-0.3175 0.10584,-0.26458 0.0794,-0.13229 0.58208,-0.47625 0.26459,-0.29104 0.18521,-0.29104 0.10583,-0.26459 0.60854,-0.15875 0.23813,-0.13229 0.15875,-0.10583 0.26458,-0.29104 0.15875,-0.21167 0.92604,-1.79917 0.0794,-0.0794 0.10583,-0.10584 0.13229,-0.10583 0.21167,-0.10583 0.21166,-0.0529 h 0.21167 l 0.23813,0.0265 0.23812,0.0529 0.10583,0.0529 0.0794,0.0529 0.0529,0.0529 0.29104,0.29104 0.0794,0.0529 0.10584,0.0265 0.0529,-0.0794 0.0265,-0.0794 v -0.34396 l 0.0265,-0.15875 0.0794,-0.15875 0.15875,-0.23812 0.0794,-0.15875 0.0529,-0.15875 v -0.10583 l -0.0265,-0.10584 -0.0265,-0.21166 -0.0529,-0.0794 v -0.10583 l -0.0265,-0.10584 v -0.10583 l 0.0265,-0.10583 v -0.10584 l 0.0265,-0.13229 0.0265,-0.10583 v -0.13229 l -0.0265,-0.10584 -0.0265,-0.0794 -0.37041,-0.66146 -0.0794,-0.71437 -0.13229,-0.47625 v -0.15875 l 0.0529,-0.1323 0.0794,-0.15875 0.13229,-0.10583 0.0794,-0.0794 0.10583,-0.0529 0.15875,-0.0794 0.21167,-0.0529 1.11125,-0.0529 0.26458,-0.10583 0.23813,-0.18521 0.26458,0.26458 1.95792,0.34396 0.42333,-0.0265 1.16417,-0.39687 0.21166,-0.10584 0.21167,-0.0529 h 0.23812 l 0.23813,0.10583 0.13229,0.0529 0.23813,0.23812 0.23812,0.0529 0.26458,-0.10583 0.26459,-0.18521 0.10583,-0.0265 h 0.13229 0.13229 l 0.1323,0.0265 0.23812,0.29104 0.50271,1.16417 0.44979,0.66145 0.15875,0.39688 -0.0265,0.42333 -0.13229,0.34396 -0.18521,0.26458 -0.23812,0.21167 -0.26459,0.13229 -0.37041,0.0794 h -0.26459 l -0.15875,0.10583 -0.0529,0.42333 0.0265,0.21167 0.10583,0.15875 0.0529,0.18521 v 0.23812 l -0.0794,0.10584 -0.39687,0.29104 -0.10584,0.29104 0.0265,0.34396 0.21167,0.74083 0.0265,0.39688 -0.0529,1.13771 0.0529,0.42333 0.10583,0.26458 0.37042,0.58209 0.10583,0.29104 0.0265,0.635 0.0529,0.26458 0.1323,0.29104 0.60854,0.58209 0.58208,1.03187 0.26458,0.29104 0.79375,0.44979 1.21709,1.0848 0.37041,0.58208 0.0529,0.76729 -0.23812,1.13771 -0.37042,1.08479 -0.60854,0.92604 -0.18521,0.37042 -0.13229,0.3175 -0.0529,0.3175 -0.13229,0.23812 -0.23813,0.18521 -0.23812,0.0529 -0.71438,0.10583 -0.47625,0.15875 -0.26458,0.29104 -0.66146,1.98438 -0.44979,0.89958 -1.11125,1.56104 -0.84667,0.79375 -0.79375,1.00542 -0.635,1.13771 -0.44979,1.19062 -0.0529,0.82021 0.3175,1.53459 0.0529,0.8202 -0.0794,0.68792 -0.18521,0.66146 -0.29104,0.58208 -0.0794,0.26459 -0.0529,-0.34396 -0.18521,-0.26459 -0.26459,-0.15875 -0.3175,-0.0794 -0.55562,0.0265 -0.21167,-0.0265 -0.15875,-0.10583 -0.34396,-0.23813 -0.15875,-0.0529 -0.1852,0.0265 -0.29105,0.0794 -0.15875,0.0265 -0.10583,0.0794 -0.0794,0.18521 -0.1323,0.18521 -0.15875,0.0794 -0.26458,-0.23812 -0.29104,-0.79375 -0.34396,-0.18521 -0.3175,0.10583 -0.29104,0.21167 -0.50271,0.50271 -0.29104,0.23812 -0.3175,0.15875 -0.34396,0.0794 -0.37042,0.0529 -0.39687,0.0794 -0.58208,0.37042 -0.34396,0.0794 -0.34396,-0.13229 -0.15875,-0.29104 -0.13229,-0.37042 -0.13229,-0.34396 -0.3175,-0.26458 -0.68792,-0.26458 -0.3175,-0.21167 -0.13229,-0.29104 -0.26459,-0.84667 -0.1852,-0.15875 -0.3175,-0.10583 -0.60855,-0.42334 -0.29104,-0.15875 h -0.74083 l -1.40229,0.3175 -2.01084,0.10584 -0.15875,0.0529 -0.3175,0.26459 -0.15875,0.0529 h -0.42333 l -0.18521,-0.0529 -1.00541,-0.42334 -0.37042,-0.0529 -0.39688,0.0529 -0.29104,0.0794 -0.39687,-0.29104 0.0265,-0.34396 0.23812,-0.34396 0.29104,-0.29104 0.23813,-0.39688 -0.0529,-0.3175 -0.23812,-0.26458 -0.3175,-0.26458 -0.21167,-0.52917 0.0794,-0.71437 0.3175,-1.29646 0.0529,-0.76729 -0.10583,-1.53459 0.0529,-0.76729 0.52917,-0.9525 0.87313,-1.11125 0.55562,-1.11125 z"
       id="UZB362"
       name="Surkhandarya"
       style="fill:#008080;stroke-width:0.264583" />
    <path
       d="m 282.28779,138.05239 -0.0265,-0.10583 -0.13229,-0.47625 -0.0265,-0.26458 0.0529,-0.37042 0.0529,-0.37042 v -0.23812 -0.13229 l -0.0265,-0.10584 -0.21167,-0.18521 -0.79375,-0.23812 -0.18521,-0.0265 -0.10583,-0.0794 -0.29104,-0.4498 -0.21167,-0.15875 -0.15875,0.1323 -0.15875,0.21166 -0.26458,0.0265 -0.92604,-0.18521 -0.74084,-0.23812 -0.42333,0.0265 -0.3175,0.0529 -0.37042,-0.0529 -0.13229,-0.0529 -0.13229,-0.0794 -0.60853,-0.84666 -0.13229,-0.23813 -0.13229,-0.13229 -0.18521,-0.10583 -0.79375,-0.26459 -0.23813,-0.0265 -0.18521,0.0265 -0.0794,0.0529 -0.13229,-0.0265 -0.21167,-0.0529 -0.42333,-0.23813 h -0.15875 l -0.0794,0.0794 -0.0265,0.34395 -0.0794,-0.0265 -0.15875,-0.23813 -0.3175,-0.635 -0.47625,-0.68792 0.44979,-0.44979 -0.23812,-0.50271 -0.18521,-0.23812 -0.0265,-0.15875 0.0794,-0.10583 0.50271,-0.47625 0.18521,-0.1323 0.21167,-0.29104 1.5875,-0.42333 0.50271,0.23812 0.635,-0.29104 0.18519,-0.0529 h 0.34396 l 0.37042,0.0265 0.42333,-0.0529 2.01084,0.50271 0.26458,0.0265 0.26458,-0.0529 0.92604,-0.0265 0.21167,-0.0529 0.10583,-0.0529 0.0529,-0.0265 0.13229,-0.10584 0.37042,-1.69333 0.0794,-0.34396 0.87313,-0.26458 0.58208,-0.0794 0.10584,-0.10583 0.18523,-0.52917 0.0794,-0.13229 0.29104,-0.23812 0.18521,0.13229 0.44979,0.68792 0.3175,0.21166 0.44979,0.13229 0.82021,0.0794 0.0794,0.0529 0.0265,0.0794 v 0.10583 l -0.0265,0.1323 v 0.47625 l 0.29104,0.13229 0.37042,0.0265 0.3175,0.13229 0.635,1.03187 0.47625,0.50271 0.60854,0.26458 0.66146,0.0794 1.98438,-0.18521 0.58208,0.18521 0.0794,0.58208 -0.0529,0.34396 0.21166,-0.0265 0.71438,-0.50271 1.13771,-0.52916 0.23812,0.15875 0.21167,0.3175 0.3175,0.21166 0.89958,-0.0529 0.47625,0.10583 0.0794,0.39688 -0.47625,0.635 -0.71438,0.42333 -1.45521,0.52917 -1.32291,0.8202 -1.11125,0.29105 -0.52917,0.23812 -0.37042,0.55563 -0.1852,1.34937 -0.4498,0.21167 -0.55562,-0.26459 h -0.29104 l -0.10584,0.34396 -0.0265,0.29104 -0.0794,0.29105 -0.13229,0.23812 -0.23813,0.21167 -0.60854,0.0265 -1.08479,-0.74084 -0.58208,-0.0794 -0.44979,-0.23813 -0.50271,-0.58208 -0.52917,-0.44979 -0.44979,0.21166 -0.0529,0.3175 0.34396,0.55563 -0.0265,0.37042 -0.0794,0.34395 v 0.21167 l 0.13229,0.18521 0.66146,0.47625 0.15875,0.42333 v 0.47625 l -0.18521,0.50271 -0.3175,0.42333 -0.34396,0.0794 -0.42333,-0.15875 -0.89961,-0.52917 -0.23813,-0.0794 -0.68791,0.0265 -0.21167,-0.0794 0.0794,-0.18521 0.18521,-0.0529 0.26459,-0.0265 0.21166,-0.0529 0.0794,-0.21167 -0.15875,-0.13229 -0.26459,-0.0265 z"
       id="UZB363"
       name="Andijon"
       style="fill:#008080;stroke-width:0.264583" />
    <path
       d="m 275.03822,149.24427 -0.23813,0.0529 -0.37041,-0.13229 -0.3175,-0.13229 -0.3175,-0.23812 -0.15875,-0.29105 0.26458,-0.3175 h 0.37042 l 0.26458,-0.13229 0.55563,-0.42333 0.39687,-0.13229 0.0529,0.21166 -0.34396,1.29646 z m -9.02229,-2.80459 0.10583,0.0265 0.0794,-0.0529 0.15875,-0.1323 0.10583,-0.0529 0.37042,-0.10584 0.21166,0.0529 0.10584,0.18521 -0.10584,0.3175 -0.71437,0.50271 -0.23813,0.23812 0.0265,0.52917 0.68792,0.71437 -0.0265,0.635 -0.18521,0.23813 -0.21167,0.0794 h -0.5027 l -0.74084,0.21167 -0.21166,-0.0265 -0.18521,-0.18521 -0.0265,-0.21166 -0.0794,-0.15875 -0.29104,-0.0265 -0.18521,0.13229 -0.21166,0.21167 -0.21167,0.13229 -0.18521,-0.10583 -0.0265,-0.50271 0.66146,-1.03188 -0.0794,-0.60854 -0.18521,-0.13229 -0.39688,-0.0794 -0.21166,-0.10583 -0.15875,-0.26458 -0.39688,-0.82021 -0.0794,-0.34396 0.0265,-0.3175 0.0794,-0.37042 0.26458,-0.60854 0.47625,-0.26458 0.34396,0.21167 0.26459,0.47625 0.21166,0.55562 0.26459,0.34396 0.42333,0.26458 0.84667,0.37042 0.0529,0.0529 z m 6.32354,-14.76375 0.47625,0.68792 0.3175,0.635 0.15875,0.23813 0.0794,0.0265 0.0265,-0.34395 0.0794,-0.0794 h 0.15875 l 0.42333,0.23813 0.21167,0.0529 0.13229,0.0265 0.0794,-0.0529 0.18521,-0.0265 0.23813,0.0265 0.79375,0.26459 0.18521,0.10583 0.13229,0.13229 0.13229,0.23813 0.60853,0.84666 0.13229,0.0794 0.13229,0.0529 0.37042,0.0529 0.3175,-0.0529 0.42333,-0.0265 0.74084,0.23812 0.92604,0.18521 0.26458,-0.0265 0.15875,-0.21166 0.15875,-0.1323 0.21167,0.15875 0.29104,0.4498 0.10583,0.0794 0.18521,0.0265 0.79375,0.23812 0.21167,0.18521 0.0265,0.10584 v 0.13229 0.23812 l -0.0529,0.37042 -0.0529,0.37042 0.0265,0.26458 0.13229,0.47625 0.0265,0.10583 -0.68791,0.0265 -0.26459,0.0529 -1.03187,0.58208 -0.13229,0.21167 -0.10584,0.37041 -0.21166,0.55563 -0.39688,0.42333 -1.34937,0.66146 -0.0794,0.29104 0.10583,0.3175 0.29105,0.18521 0.44979,0.21167 0.21166,0.15875 0.0794,0.15875 -0.10583,0.21166 -0.21167,0.0529 -0.23813,-0.0265 -0.1852,-0.0794 -0.10584,-0.0265 h -0.10583 l -0.18521,0.0529 -0.58208,-0.0529 -0.60854,-0.13229 -0.58209,0.0265 -0.47624,0.47625 -0.26458,0.635 -0.18521,0.29104 -0.23812,0.23812 -0.82021,0.47625 -0.21167,0.0529 -0.3175,-0.13229 -0.0794,-0.3175 v -0.82021 l -0.10584,-0.39688 -0.21166,-0.44979 -0.29105,-0.23812 -0.26458,0.23812 -0.10583,0.39688 -0.0265,0.34396 -0.13229,0.23812 -0.37042,0.0265 -0.74083,-0.13229 -0.34396,-0.15875 -0.3175,-0.18521 -0.29104,-0.29104 -0.13229,-0.29104 -0.1323,-0.23813 -0.68791,-0.21167 -0.47625,-0.44979 -0.3175,-0.0265 -0.47625,0.0529 -0.26459,-0.0265 -0.21166,-0.10583 -0.15875,-0.18521 -0.13229,-0.21167 -0.15875,-0.10583 -0.21167,0.0529 -0.26458,0.37041 -0.1323,0.4498 -0.21166,0.34395 -0.47625,0.0529 -1.79917,-0.26458 -0.89958,0.15875 -0.55563,0.55562 -0.3175,-0.0265 -1.34937,0.1323 -2.19604,0.66145 -0.66146,0.0529 -0.635,-0.0265 -0.635,-0.44979 -0.26459,-0.84667 -0.21166,-0.9525 -0.39688,-0.66145 -0.34396,-0.1323 -0.29104,0.0265 -0.29104,0.0794 -0.34396,0.0265 -0.3175,-0.0794 -0.76729,-0.34396 0.21167,-0.71437 -0.0529,-0.0794 -0.13229,-0.15875 -0.0265,-0.0265 -0.18521,-0.29104 -0.0265,-0.0529 -0.0265,-0.10584 -0.0265,-0.42333 0.23812,-0.39688 0.44979,-0.29104 1.05834,-0.23812 0.15875,-0.0794 0.15875,-0.18521 0.37041,-0.635 0.21167,-0.21166 0.21167,-0.10584 0.21166,-0.0529 0.23813,-0.10584 0.18521,-0.1852 0.55562,-0.66146 0.92604,-0.76729 0.23813,-0.21167 0.21167,-0.18521 0.13229,-0.0529 0.26458,-0.0529 0.0529,-0.0794 0.0265,-0.10583 0.0529,-0.0794 0.23813,-0.15875 0.39687,-0.23812 0.15875,-0.21167 0.13229,-0.18521 0.18521,-0.1852 0.23813,-0.1323 0.21166,-0.0264 0.42334,0.0529 0.21166,-0.0265 0.71438,-0.66145 h 0.3175 l 0.23812,0.10583 0.1323,0.0794 0.10583,0.10584 0.47625,0.0529 1.74625,-0.0794 -0.97896,1.32292 0.0794,0.10583 0.60854,0.0529 0.10583,0.0529 0.44979,0.47625 0.10584,0.0529 0.15875,0.0529 0.29104,0.0529 0.15875,0.0529 0.3175,0.26458 0.71437,0.39688 0.21167,0.0529 0.34396,-0.0529 1.00541,-0.9525 0.47625,-0.76729 0.3175,-0.23813 1.34938,-0.74083 z"
       id="UZB364"
       name="Ferghana"
       style="fill:#008080;stroke-width:0.264583" />
    <path
       d="m 281.78508,126.93989 -0.0794,0.34396 -0.37042,1.69333 -0.13229,0.10584 -0.0529,0.0265 -0.10583,0.0529 -0.21167,0.0529 -0.92604,0.0265 -0.26458,0.0529 -0.26458,-0.0265 -2.01084,-0.50271 -0.42333,0.0529 -0.37042,-0.0265 h -0.34396 l -0.18519,0.0529 -0.635,0.29104 -0.50271,-0.23812 -1.5875,0.42333 -0.21167,0.29104 -0.18521,0.1323 -0.50271,0.47625 -0.0794,0.10583 0.0265,0.15875 0.18521,0.23812 0.23812,0.50271 -0.44979,0.44979 -1.27,0.42334 -1.34938,0.74083 -0.3175,0.23813 -0.47625,0.76729 -1.00541,0.9525 -0.34396,0.0529 -0.21167,-0.0529 -0.71437,-0.39688 -0.3175,-0.26458 -0.15875,-0.0529 -0.29104,-0.0529 -0.15875,-0.0529 -0.10584,-0.0529 -0.44979,-0.47625 -0.10583,-0.0529 -0.60854,-0.0529 -0.0794,-0.10583 0.97896,-1.32292 -1.74625,0.0794 -0.47625,-0.0529 -0.10583,-0.10584 -0.1323,-0.0794 -0.23812,-0.10583 h -0.3175 l -0.71438,0.66145 -0.21166,0.0265 -0.42334,-0.0529 -0.21166,0.0264 -0.23813,0.1323 -0.18521,0.1852 -0.13229,0.18521 -0.15875,0.21167 -0.39687,0.23812 0.0265,-0.15875 0.13229,-0.68791 -0.58209,-0.34396 -1.40229,-0.34396 -0.23812,-0.29104 -0.0529,-0.37042 0.15875,-0.23812 0.29104,-0.0529 0.52917,0.47625 0.3175,0.10583 0.0265,-0.37041 -0.13229,-0.18521 -2.80459,-3.175 -0.47625,-0.42333 -0.0529,-0.0529 -0.0265,-0.0794 -0.3175,-0.3175 0.13229,-0.47625 -0.0529,-1.50812 -0.0529,-0.44979 -0.3175,-0.52917 -0.3175,-0.42333 -0.0794,-0.15875 -0.0529,-0.13229 v -0.15875 l 0.0265,-0.10584 0.29104,-0.635 0.0529,-0.13229 0.0794,-0.26458 -0.0529,-0.18521 -0.42333,-0.0529 -0.0529,-0.0794 -0.0529,-0.10584 -0.0265,-0.3175 -0.0264,-0.23812 0.0264,-0.13229 0.0265,-0.13229 0.76729,-1.00542 0.1323,-0.23813 0.1852,-0.5027 h 0.10584 l 0.50271,-0.18521 1.905,-1.08479 0.5027,-0.0794 0.29105,0.18521 0.26458,0.34396 0.87312,1.48166 0.1323,0.42334 0.0264,0.42333 -0.21166,1.27 0.0265,0.34396 0.1852,0.29104 0.23813,-0.0265 0.3175,-0.15875 0.34396,-0.0265 0.29104,0.1323 0.26458,0.1852 0.26459,0.26459 0.21166,0.29104 0.26459,0.26458 0.3175,0.0265 0.66145,-0.0794 0.74084,0.13229 0.34396,0.15875 0.3175,0.23812 0.26458,0.15875 0.58208,0.0794 0.23813,0.21166 0.39687,0.635 0.23813,0.18521 0.15875,-0.39687 -0.0265,-0.42334 -0.0794,-0.37041 0.0265,-0.29104 0.3175,-0.18521 0.37042,0.0529 0.18521,0.23813 0.18521,0.76729 0.13229,0.29104 0.21166,0.21167 0.21167,-0.0265 0.15875,-0.39687 0.37042,-0.47625 1.05833,0.89958 0.34396,-0.29104 0.0794,-0.71438 -0.13229,-3.51896 0.10584,-0.26458 0.21166,0.0529 0.74084,0.68791 0.66145,0.29105 0.52917,-0.10584 0.42333,-0.44979 0.50271,-1.11125 0.21167,-0.68792 0.0794,-0.39687 -0.0529,-0.37042 -0.44979,-0.58208 -0.15875,-0.34396 0.3175,-0.76729 0.1852,-0.23813 0.34396,-0.13229 0.34396,0.0529 0.18521,0.26458 0.0794,0.39688 v 0.42333 l -0.29104,1.16417 0.0265,0.23812 0.13229,0.0529 0.10584,-0.15875 0.0529,-0.21167 0.0794,-0.13229 0.15875,0.0794 0.0794,0.3175 0.15875,0.0794 0.10584,-0.10583 0.0265,-0.44979 0.10584,-0.0794 0.10583,0.0529 0.13229,0.10583 1.4552,2.16958 0.23813,0.60855 0.0794,0.68791 -0.0265,0.84667 0.0794,0.87312 0.39687,0.18521 1.21709,-0.21166 0.37041,0.3175 0.23813,0.34395 0.26458,0.1323 0.44979,-0.26459 0.34396,-0.3175 0.37042,-0.21166 0.37041,-0.0794 0.39688,0.23813 0.15875,0.39687 0.0794,0.55563 0.0265,0.58208 0.13229,1.05833 v 0.39688 l -0.10583,0.37041 -0.21167,0.50271 z m -23.8654,1.11125 -0.18521,-0.50271 -0.21167,-0.34395 -0.37041,-0.3175 -0.42334,-0.18521 -0.23812,0.0529 0.15875,0.42334 0.29104,0.29104 0.44979,0.60854 0.26458,0.23813 0.29105,0.0794 z"
       id="UZB365"
       name="Namangan"
       style="fill:#008080;stroke-width:0.264583" />
    <path
       d="m 221.38072,133.92489 -0.0529,0.82021 -0.1852,0.21167 -0.84667,0.15875 -0.21167,0.0265 -0.0794,0.0529 -0.0794,0.0529 -0.0265,0.10583 -0.0265,0.47625 -0.10584,0.76729 0.0529,0.10584 0.0794,0.0794 0.23813,-0.0529 0.29104,-0.0794 h 0.13229 l 0.0529,0.23813 -1.82563,4.18041 -0.0529,0.29104 -0.0529,0.3175 0.0794,0.55563 0.0529,0.15875 0.0794,0.15875 0.0794,0.0529 0.42334,0.0794 3.4925,0.0794 4.60375,-1.13771 h 0.0529 l 0.0265,0.0265 -0.0794,0.15875 -0.0794,0.10583 -0.0529,0.10583 c 0,0 -0.0591,0.085 -0.0794,0.13229 -0.10449,0.24388 -0.21167,0.7673 -0.21167,0.7673 l -0.0529,0.13229 -0.0529,0.18521 0.18521,0.34395 v 0.0265 l -0.60854,0.15875 -0.3175,0.23813 0.39687,0.42333 0.68792,0.44979 0.52916,0.21167 0.15875,-0.0265 -0.66145,0.87313 -0.23813,0.42333 -0.0794,0.21167 v 0.15875 0.13229 l 0.0264,0.10583 0.0529,0.18521 0.10583,0.21167 0.10584,0.37041 0.0529,0.18521 0.0265,0.10583 v 0.18521 l -0.0265,0.66146 -0.0529,0.10583 h -0.0794 l -0.0265,-0.0794 -0.0794,-0.0794 -0.0794,-0.0265 -0.0794,-0.0265 -0.13229,0.0794 -0.0265,0.0794 0.0529,0.0794 0.0529,0.0794 0.29104,0.15875 0.0794,0.0794 0.0265,0.0794 -0.0265,0.10583 -0.0265,0.13229 -0.0794,0.18521 -0.0265,0.3175 -0.0265,0.18521 h -0.0529 l -0.15875,-0.0265 -0.15875,0.44979 -0.15875,3.22792 -0.0794,0.47625 -0.21167,0.39687 -0.37042,0.37042 -0.66145,0.42333 -0.21167,0.29105 0.18521,0.39687 -0.3175,0.13229 -0.9525,0.26459 -0.74084,0.0529 -0.76729,-0.0529 -1.24354,-0.4498 -2.30187,-0.0529 -5.26521,-1.37584 -0.71438,-0.0265 -0.58208,0.1852 -1.42875,1.03188 -1.21708,0.18521 -0.3175,0.3175 0.10583,0.87312 -0.0529,0.0794 -0.0529,0.0529 -0.0794,0.0265 -0.0794,0.0265 -0.39688,-0.0529 -0.23812,0.0265 -1.16417,-1.03187 -0.635,-0.55563 -0.21167,-0.26458 -0.15875,-0.34396 0.0265,-1.37583 0.0529,-0.15875 0.10583,-0.18521 0.18521,-0.0529 h 0.47625 l 0.13229,-0.0265 0.13229,-0.0529 0.0794,-0.10584 0.0265,-0.10583 v -0.23812 -0.1323 l -0.0265,-0.1852 -0.0265,-0.10584 -0.0265,-0.13229 v -0.18521 -0.29104 l 0.0529,-0.13229 0.0265,-0.10583 0.10583,-0.10584 0.23812,-0.18521 0.50271,-0.26458 0.3175,-0.10583 0.42334,-0.10584 h 0.10583 l 0.23812,-0.0529 0.0529,-0.15875 -0.39687,-1.87854 -0.26459,-0.42334 -2.67229,-0.50271 -0.34396,-0.0264 -0.15875,0.0529 -0.13229,-0.0265 -0.10583,-0.0529 -0.26459,-0.15875 h -0.10583 l -0.10583,0.0265 -0.23813,0.0264 -0.18521,-0.0264 -1.21708,-0.34396 -0.18521,-0.29104 -0.0529,0.0265 h -0.0794 l -0.21167,0.0794 -0.52916,-0.58208 -0.0265,-0.10584 v -0.18521 l 0.0529,-0.13229 -0.0265,-0.26458 -0.0794,-0.13229 -0.10583,-0.0794 h -0.10583 -0.10584 l -0.0794,0.0265 -0.29104,0.13229 -0.0794,0.0265 -0.13229,0.0265 h -0.13229 l -0.18521,-0.0529 -0.0529,-0.0794 -0.0529,-0.10584 -0.0794,-0.89958 0.0265,-0.10583 0.0265,-0.10584 0.0794,-0.0529 0.29104,-0.0794 0.0794,-0.0794 0.0529,-0.0529 0.0529,-0.18521 0.0265,-0.47625 -0.42333,-0.50271 -0.0529,-0.15875 v -0.15875 l 0.0529,-0.10583 v -0.15875 l -0.0529,-0.0794 -0.0794,-0.0794 -0.3175,-0.13229 -0.10584,-0.10583 -0.0529,-0.10584 -0.0529,-0.0794 -0.21167,-1.05834 -0.0265,-0.34395 -0.0265,-0.9525 v -0.1323 l 0.0265,-0.13229 0.0265,-0.10583 0.13229,-0.3175 0.0794,-0.29104 0.0265,-0.26459 -0.0265,-0.21166 -0.0794,-0.18521 -0.10583,-0.26458 -0.0794,-0.10584 -0.0794,-0.0794 -0.10583,0.0265 -0.39688,0.0794 -0.34396,0.0265 -0.26458,-0.0529 -0.23812,-0.0529 -0.635,-0.18521 -1.93146,-0.0794 -0.13229,-0.10583 2.35479,-4.57729 0.42333,-1.08479 -0.34396,-0.60855 -0.13229,-0.34395 -0.0265,-0.10584 v -0.34396 l 0.0529,-0.37041 v -0.18521 -0.15875 l -0.0529,-0.0794 -0.0529,-0.0794 -0.0794,-0.0794 -1.37583,-0.37041 -0.21167,-0.13229 -0.10583,-0.0529 -0.13229,-0.15875 -0.0794,-0.18521 -0.0529,-0.0794 -0.0265,-0.10584 -0.23813,-2.8575 0.18521,-0.23812 0.13229,-0.3175 1.87854,-0.76729 v -0.0794 l 0.87313,0.23813 1.79916,-0.10584 1.50813,-0.10583 3.86292,-0.23813 1.98437,-0.10583 3.22792,-0.21167 1.95791,-0.10583 0.37042,0.10583 0.635,0.34396 0.34396,0.10584 0.29104,-0.0529 0.44979,-0.29104 0.44979,-0.29104 0.37042,-0.26459 0.10583,0.3175 0.0794,0.26459 0.0529,0.0529 0.10583,0.21167 0.34396,0.44979 0.34396,0.44979 0.15875,0.37042 0.0529,0.39687 0.0529,0.37042 0.10583,0.18521 0.10584,0.15875 0.1852,-0.15875 0.18521,-0.0794 0.18521,0.0265 0.18521,0.21167 0.21167,-0.44979 0.3175,-0.0265 0.0529,0.42333 v 0.0529 l -0.0265,0.18521 0.15875,0.0529 0.0265,0.0265 -0.34396,0.26459 -0.13229,0.0794 0.13229,0.0529 0.0529,0.10583 0.13229,0.23813 v 0.58208 l -0.0794,0.34396 -0.0794,0.34396 -0.10583,0.3175 -0.10583,0.34395 -0.23813,0.52917 -0.18521,0.26458 -0.21166,0.26459 -0.26459,0.18521 -0.52916,0.26458 -0.15875,0.10583 -0.0265,0.15875 0.0794,0.0794 0.60854,0.13229 0.47625,0.26458 1.4023,1.40229 0.52916,0.39688 0.50271,0.42333 z"
       id="UZB370"
       name="Jizzakh"
       sodipodi:nodetypes="cccccccccccccccccccccccccccccccsccccccccccccccccccccccccccccccccccccccccccccccccccccccccccccccccccccccccccccccccccccccccccccccccccccccccccccccccccccccccccccccccccccccccccccccccccccccccccccccccccccccccccccccccccccccccccccccccccccccccccccccccccccccccccccccccccccccccccccccccccccccccccccccccccccc"
       style="fill:#008080;stroke-width:0.264583" />
    <path
       d="m 227.12218,150.32906 0.0265,-0.18521 0.0265,-0.3175 0.0794,-0.18521 0.0265,-0.13229 0.0265,-0.10583 -0.0265,-0.0794 -0.0794,-0.0794 -0.29104,-0.15875 -0.0529,-0.0794 -0.0529,-0.0794 0.0265,-0.0794 0.13229,-0.0794 0.0794,0.0265 0.0794,0.0265 0.0794,0.0794 0.0265,0.0794 h 0.0794 l 0.0529,-0.10583 0.0265,-0.66146 v -0.18521 l -0.0265,-0.10583 -0.0529,-0.18521 -0.10584,-0.37041 -0.10583,-0.21167 -0.0529,-0.18521 -0.0264,-0.10583 v -0.13229 -0.15875 l 0.0794,-0.21167 0.23813,-0.42333 0.66145,-0.87313 3.59834,-0.71437 0.71437,0.5027 0.10583,0.29105 0.0265,0.3175 v 0.29104 l -0.13229,0.23812 -0.34396,0.0529 -1.13771,-0.15875 -0.29104,0.0794 -0.55562,0.47625 -0.21167,0.0794 -0.34396,-0.635 -0.23812,-0.18521 -0.18521,0.37042 0.0265,0.18521 0.26458,0.21166 0.0529,0.15875 -0.0265,0.39688 0.0265,0.18521 0.0794,0.21166 1.34938,1.87854 0.0529,0.4498 -0.66145,0.26458 -0.34396,-0.55563 -0.23813,-0.84666 -0.3175,-0.68792 -0.3175,-0.23812 -0.10583,0.15875 0.0529,0.37041 0.15875,0.44979 0.34396,0.71438 -0.0265,0.29104 -0.18521,0.39688 -0.0529,0.0264 -0.15875,0.0265 -0.0529,0.0265 -0.10584,0.3175 v 0.13229 l -0.0265,0.18521 -0.10583,0.13229 -0.21167,-0.10583 -0.39687,-0.66146 -0.26458,-0.21167 -0.52917,0.47625 z m 6.6675,-7.38188 -0.50271,-0.26458 -0.34396,-0.0529 -2.48708,0.39688 -0.3175,0.13229 -0.52917,0.29104 -0.37041,0.0529 -0.87313,-0.15875 -0.34396,0.0265 -0.87312,0.23812 v -0.0265 l -0.18521,-0.34395 0.0529,-0.18521 0.0529,-0.13229 0.21167,-0.7673 0.0794,-0.13229 0.0529,-0.10583 0.0794,-0.10583 0.0794,-0.15875 -0.0265,-0.0265 h -0.0529 l -4.60375,1.13771 -3.4925,-0.0794 -0.42334,-0.0794 -0.0794,-0.0529 -0.0794,-0.15875 -0.0529,-0.15875 -0.0794,-0.55563 0.0529,-0.3175 0.0529,-0.29104 1.82563,-4.18041 -0.0529,-0.23813 h -0.13229 l -0.29104,0.0794 -0.23813,0.0529 -0.0794,-0.0794 -0.0529,-0.10584 0.10584,-0.76729 0.0265,-0.47625 0.0265,-0.10583 0.0794,-0.0529 0.0794,-0.0529 0.21167,-0.0265 0.84667,-0.15875 0.1852,-0.21167 0.0529,-0.82021 1.19063,0.635 1.79916,0.9525 0.0529,-0.10583 0.18521,-0.18521 h 0.23812 l 0.10584,-0.13229 0.10583,-0.18521 0.13229,-0.0794 0.18521,0.0265 0.60854,0.29105 0.39688,0.0794 0.34395,-0.21167 0.0794,-0.26458 -0.29104,-0.15875 0.37041,-0.60854 0.0265,-0.13229 -0.13229,-0.23813 -0.0794,-0.23812 -0.0794,-0.26459 0.0265,-0.26458 -0.39688,-0.0794 -0.13229,-0.0794 -0.13229,-0.15875 -0.10583,-0.39687 -0.0794,-0.84667 -0.0794,-0.84667 0.0265,-0.15875 0.0264,-0.15875 0.10584,-0.10583 0.0794,-0.0794 0.10584,-0.21166 0.0265,-0.21167 -0.0529,-0.44979 0.0265,-0.21167 0.0529,0.0265 0.15875,0.0529 0.0529,0.0529 0.18521,-0.47625 0.42333,-0.29104 0.3175,-0.15875 0.79375,0.71438 0.10583,0.18521 0.0529,0.21166 0.0265,0.47625 0.0529,0.15875 0.0794,0.0529 0.13229,-0.10583 h 0.0529 l 0.0529,0.13229 0.0529,0.34396 0.23813,-0.10584 0.34396,0.0794 0.34395,0.13229 0.23813,0.18521 0.13229,0.18521 0.15875,0.34395 0.13229,0.1323 0.10583,0.0794 0.39688,0.21167 0.18521,0.13229 0.0794,0.10583 0.15875,0.34396 v 0.0794 l -0.0265,0.23812 0.0265,0.10583 0.10584,0.0794 0.10583,0.0265 0.10583,-0.0265 0.10584,0.0265 0.21166,0.21166 0.15875,0.23813 0.0529,0.26458 -0.21167,0.26459 0.23813,0.15875 0.21166,-0.0794 0.21167,-0.13229 0.23813,-0.0794 0.15875,0.0794 -0.0794,0.21167 -0.23812,0.39687 0.66145,-0.10583 0.26459,0.0265 0.18521,0.5027 0.29104,0.23813 0.0794,0.18521 -0.0794,0.15875 -0.23813,0.23812 v 0.15875 l 0.10584,0.0794 0.15875,-0.10584 0.15875,-0.1852 0.15875,-0.0794 0.13229,0.0794 0.10583,0.13229 v 0.13229 l -0.39687,0.18521 -0.1323,0.29104 -0.1852,0.71437 0.1852,-0.0265 0.15875,0.0265 0.15875,0.0529 0.1323,0.10583 -0.29105,0.15875 0.0265,0.15875 0.15875,0.15875 0.10584,0.1323 0.0264,0.15875 0.0529,0.1852 0.0265,0.18521 -0.0529,0.15875 -0.23812,0.29104 -0.0794,0.15875 -0.0794,0.18521 -0.0529,0.15875 -0.3175,1.85209 0.21167,0.55562 0.10583,0.15875 0.0265,0.29104 -0.21167,0.79375 z"
       id="UZB371"
       name="Sirdaryo"
       style="fill:#008080;stroke-width:0.264583" />
    <path
       d="0.23812,0.21167 z m -17.03916,2.19604 -0.15875,-0.18521 0.13229,-m 255.27384,118.79073 -0.1852,0.5027 -0.1323,0.23813 -0.76729,1.00542 -0.0265,0.13229 -0.0264,0.13229 0.0264,0.23812 0.0265,0.3175 0.0529,0.10584 0.0529,0.0794 0.42333,0.0529 0.0529,0.18521 -0.0794,0.26458 -0.0529,0.13229 -0.29104,0.635 -0.0265,0.10584 v 0.15875 l 0.0529,0.13229 0.0794,0.15875 0.3175,0.42333 0.3175,0.52917 0.0529,0.44979 0.0529,1.50812 -0.13229,0.47625 -0.18521,-0.21166 -0.68792,-0.29104 -0.58208,0.15875 -0.42333,2.14312 -0.84667,1.00542 -1.11125,0.68791 -1.5875,0.635 -1.45521,1.11125 -2.83104,0.89959 -0.34396,0.15875 -0.3175,0.26458 -0.635,0.82021 -0.37042,0.3175 -0.39687,0.13229 -0.47625,-0.15875 -0.21167,-0.18521 -0.15875,-0.21166 -0.26458,-0.47625 -0.18521,-0.21167 -0.37042,-0.26458 -0.1852,-0.15875 -0.60855,-0.92605 -0.34395,-0.34395 -0.50271,-0.0529 -0.23813,-0.13229 -0.18521,-0.21167 -0.21166,-0.15875 -0.26459,-0.0265 -0.5027,0.15875 -0.23813,0.13229 -0.23812,0.18521 -0.37042,0.50271 -0.23813,0.52917 -0.10583,0.60854 -0.0265,0.74083 0.10584,1.08479 -0.0529,0.26459 -0.23813,0.13229 -0.92604,0.0794 -0.55562,0.39688 v 0.42333 l 0.60854,1.03188 h 0.0265 l 0.3175,1.13771 0.15875,0.37041 0.39687,0.71438 0.15875,0.39687 0.10584,0.44979 -0.1323,0.97896 -0.47625,0.0794 -0.60854,-0.21167 -0.39687,0.0529 0.0794,0.58208 1.11125,1.00542 v 0.47625 l -0.58208,0.26458 -0.76729,-0.0265 -1.37584,-0.39687 -0.52916,-0.26459 0.0794,-0.29104 0.21167,-0.79375 -0.0265,-0.29104 -0.10583,-0.15875 -0.21167,-0.55562 0.3175,-1.85209 0.0529,-0.15875 0.0794,-0.18521 0.0794,-0.15875 0.23812,-0.29104 0.0529,-0.15875 -0.0265,-0.18521 -0.0529,-0.1852 -0.0264,-0.15875 -0.10584,-0.1323 -0.15875,-0.15875 -0.0265,-0.15875 0.29105,-0.15875 -0.1323,-0.10583 -0.15875,-0.0529 -0.15875,-0.0265 -0.1852,0.0265 0.1852,-0.71437 0.1323,-0.29104 0.39687,-0.18521 v -0.13229 l -0.10583,-0.13229 -0.13229,-0.0794 -0.15875,0.0794 -0.15875,0.1852 -0.15875,0.10584 -0.10584,-0.0794 v -0.15875 l 0.23813,-0.23812 0.0794,-0.15875 -0.0794,-0.18521 -0.29104,-0.23813 -0.18521,-0.5027 -0.26459,-0.0265 -0.66145,0.10583 0.23812,-0.39687 0.0794,-0.21167 -0.15875,-0.0794 -0.23813,0.0794 -0.21167,0.13229 -0.21166,0.0794 -0.23813,-0.15875 0.21167,-0.26459 -0.0529,-0.26458 -0.15875,-0.23813 -0.21166,-0.21166 -0.10584,-0.0265 -0.10583,0.0265 -0.10583,-0.0265 -0.10584,-0.0794 -0.0265,-0.10583 0.0265,-0.23812 v -0.0794 l -0.15875,-0.34396 -0.0794,-0.10583 -0.18521,-0.13229 -0.39688,-0.21167 -0.10583,-0.0794 -0.13229,-0.1323 -0.15875,-0.34395 -0.13229,-0.18521 -0.23813,-0.18521 -0.34395,-0.13229 -0.34396,-0.0794 -0.23813,0.10584 -0.0529,-0.34396 -0.0529,-0.13229 h -0.0529 l -0.13229,0.10583 -0.0794,-0.0529 -0.0529,-0.15875 -0.0265,-0.47625 -0.0529,-0.21166 -0.10583,-0.18521 -0.79375,-0.71438 0.60854,-0.26458 0.3175,-0.37042 0.29104,-0.82021 0.29105,-0.8202 0.1852,-0.23813 0.23813,-0.23812 0.52917,-0.23813 0.5027,-0.23812 0.39688,-0.66146 0.10583,-0.13229 0.0794,-0.1323 0.3175,-0.10583 0.66145,-0.0794 0.29105,-0.1323 0.26458,-0.13229 0.26458,-0.18521 0.26459,-0.1852 0.26458,-0.26459 0.13229,-0.23812 0.10583,-0.97896 0.1323,-0.9525 -0.0265,-0.34396 -0.0265,-0.23812 -0.0529,-0.0794 -0.0794,-0.0529 -0.13229,-0.1852 -0.0529,-0.15875 0.0794,-0.15875 0.1323,-0.10584 0.71437,-0.34396 0.29104,-0.0794 0.26459,0.10583 0.15875,-0.42333 0.39687,-0.37042 0.39688,-0.26458 0.42333,-0.26458 0.26458,-0.0794 0.44979,0.18521 0.21167,-0.0265 0.60854,-0.39687 0.21167,-0.0529 0.47625,0.0794 0.44979,0.0794 0.18521,-0.10583 -0.0265,-0.21167 -0.26458,-0.47625 -0.0529,-0.21167 0.10583,-0.26458 0.10584,-0.26458 0.39687,-0.3175 0.87313,-0.26459 0.79375,-0.635 0.76729,-0.60854 0.23812,-0.26458 0.21167,-0.23813 0.26458,-0.21166 1.03188,-0.29105 1.03187,-0.29103 0.87313,-0.0265 0.84667,-0.0529 0.635,-0.26459 0.47625,-0.55562 0.21166,-0.3175 0.23813,-0.18521 0.42333,-0.15875 0.42333,-0.15875 1.29646,-0.9525 0.18521,-0.23812 0.18521,-0.21167 0.52917,-0.92604 0.52916,-0.89959 0.21167,-0.23812 0.26458,-0.13229 0.29104,-0.10584 0.23813,-0.13229 0.21167,-0.21166 0.0529,-0.18521 0.0529,-0.18521 0.37042,-0.84667 0.34395,-0.29104 0.3175,-0.29104 1.50813,-0.635 0.21167,0.0265 0.29104,0.21166 0.23812,0.26459 0.13229,0.29104 0.10584,0.37042 0.23812,0.23812 0.3175,0.13229 0.37042,0.0529 0.23812,-0.10583 0.23813,-0.10584 0.3175,-0.60854 0.15875,-0.39687 0.13229,-0.37042 0.34396,-0.68792 0.23812,-0.23812 0.21167,-0.26459 0.15875,-0.29104 0.13229,-0.37041 0.21167,-0.3175 h 0.37042 l 0.71437,0.1852 0.58208,-0.0794 0.29105,-0.13229 0.29104,-0.15875 1.03187,-0.84667 0.34396,-0.3175 0.66146,-0.52917 0.50271,-0.0529 0.47625,0.21166 2.16958,1.53459 0.52917,0.18521 -0.21167,0.79375 -0.58208,0.39687 -1.27,0.37042 -2.16959,1.61396 -0.635,0.15875 -0.76729,-0.0265 -0.60854,0.15875 -0.29104,0.76729 -0.0265,1.19062 -0.18521,0.34396 -0.52916,0.21167 -1.53459,0.15875 -0.47625,0.29104 -1.50812,1.29646 -0.66146,0.79375 -0.44979,0.97896 -0.37042,0.55562 -0.47625,0.29104 -0.50271,0.26458 -0.89958,0.71437 -2.48708,1.48167 -0.34396,0.52917 0.29104,0.66145 0.55562,0.29105 2.16959,0.23812 0.0265,0.0265 0.55562,0.34396 0.26458,0.23812 0.23813,0.29104 0.37042,0.71438 0.18521 -0.15875,-0.23812 -0.21167,-0.1323 0.23813,-0.39687 -0.0794,-0.34396 -0.55562,-0.37042 -0.47625,-0.0529 -0.37042,-0.26459 -0.50271,0.0265 -0.82021,0.82021 -0.13229,0.635 -0.39687,1.00542 0.0529,0.0265 0.26459,-0.1323 0.0265,0.23813 0.10583,0.23812 0.37042,0.42334 0.26458,-0.23813 v 0.0794 l -0.0794,0.18521 0.18521,0.34395 0.44979,0.1323 0.50271,-0.60855 c 0,0 0.4802,-0.51513 0.76729,-0.71437 0.17822,-0.12368 0.58209,-0.29104 0.58209,-0.29104 z"
       id="UZB372"
       name="Tashkent"
       sodipodi:nodetypes="cccccccccccccccccccccccccccccccccccccccccccccccccccccccccccccccccccccccccccccccccccccccccccccccccccccccccccccccccccccccccccccccccccccccccccccccccccccccccccccccccccccccccccccccccccccccccccccccccccccccccccccccccccccccccccccccccccccccccccccccccccccccccccccccccccccccccccccccccccccccccccccccccccccccccccccccccccccccccccccccccccccccccccccsc"
       style="fill:#008080;stroke-width:0.264583" />
    <path
       d="m 238.23464,120.98688 -0.58208,0.29104 -0.76729,0.71438 -0.50271,0.60854 -0.44979,-0.13229 -0.18521,-0.34396 0.0794,-0.18521 v -0.0794 l -0.26458,0.23813 -0.37042,-0.42333 -0.10583,-0.23813 -0.0265,-0.23812 -0.26458,0.13229 -0.0529,-0.0265 0.39688,-1.00542 0.13229,-0.635 0.82021,-0.82021 0.5027,-0.0264 0.37042,0.26458 0.47625,0.0529 0.55563,0.37041 0.0794,0.34396 -0.23812,0.39688 0.21166,0.13229 0.15875,0.23812 -0.13229,0.18521 z"
       id="UZB4828"
       name="Tashkent"
       style="fill:#008080;stroke-width:0.264583" />
  </g>
</svg>
